<svg width="120" height="16" fill="none" xmlns="http://www.w3.org/2000/svg"><path d="M51.615.91A5.407 5.407 0 0049.8.207 10.867 10.867 0 0047.57 0h-4.777v13.192h2.179V8.67h2.599c.748.008 1.495-.06 2.23-.206a5.398 5.398 0 001.815-.704c.52-.328.942-.788 1.22-1.332.293-.56.443-1.258.447-2.093-.004-.835-.154-1.532-.446-2.092A3.419 3.419 0 0051.616.91zm-.82 4.608a1.905 1.905 0 01-.732.726 3.36 3.36 0 01-1.077.365c-.43.072-.866.105-1.302.1H44.97V1.962h2.713a6.512 6.512 0 011.7.189c.51.132.915.37 1.217.716.303.345.458.835.465 1.47-.004.477-.094.871-.27 1.182zM.766 11.93V0H0v13.192h.669l9.344-11.911v11.91h.764V.002h-.687L.765 11.93zm30.22-4.636h6.84V5.787h-6.84V1.509H38.4V.001h-9.018v13.192h9.133v-1.508h-7.529V7.294zM14.638 1.076h4.891v12.116h1.128V1.075h4.892V.001H14.638v1.075zM59.908 0l-5.465 13.192h2.962l.993-2.469h6.114l.975 2.47h2.962L63.002 0h-3.094zm-.612 8.387l1.854-4.73a4.288 4.288 0 00.305-1.037 6.128 6.128 0 00.287 1.036l1.873 4.73h-4.319zM93.688 6.2c.047-.395.078-.781.094-1.158.015-.376.022-.744.022-1.103V0h-4.415v13.192h3.727l4.528-6.181c-.047.395-.078.777-.093 1.147s-.023.729-.021 1.077v3.957h4.414V0h-3.726l-4.53 6.2zM83.304 0H79.77v10.083h-4.968V0h-3.535v13.192h10.7v2.732h3.058v-5.841h-1.72V0zm36.033 0h-6.65a9.451 9.451 0 00-2.165.234 5.68 5.68 0 00-1.877.79 3.938 3.938 0 00-1.323 1.48c-.326.619-.493 1.386-.5 2.301.005.886.201 1.645.588 2.278.386.633.936 1.144 1.648 1.528l-3.286 4.58h5.714l2.445-3.581h.325v3.58h5.082L119.337 0zm-5.083 5.993h-1.166c-.273-.003-.497-.052-.672-.147a.937.937 0 01-.389-.373 1.021 1.021 0 01-.124-.498 1.033 1.033 0 01.124-.499.94.94 0 01.389-.372c.175-.096.399-.145.672-.148h1.166v2.037z" fill="#C9C9C9"/></svg>