<svg width="80" height="80" fill="none" xmlns="http://www.w3.org/2000/svg"><path d="M18.941 9.788c.392-.037.635-.074.877-.074.28 0 .541.019.896.037v31.003h-1.829a25340.26 25340.26 0 01-16.85-27.256c-.132.038-.169.038-.188.056-.018.019-.056.038-.056.056-.018.056-.056.112-.056.168v26.939H0V9.77h1.791c5.636 9.06 11.29 18.195 16.945 27.33a.908.908 0 00.205-.074V9.788z" fill="#555"/><path d="M28.533 8.987h2.314V79.42c-.41.018-.784.037-1.138.055h-1.176V8.987z" fill="#E12"/><path d="M63.914 25.3c-.056 4.473-1.343 8.482-4.422 11.838-2.837 3.076-6.382 4.455-10.525 4.175-3.527-.242-6.364-1.883-8.566-4.66-2.108-2.666-3.19-5.686-3.526-9.042-.28-2.629-.112-5.22.597-7.737 1.12-3.933 3.228-7.196 6.942-9.135 4.72-2.48 10.88-1.435 14.611 2.386 2.725 2.778 4.292 6.097 4.684 9.974.056.727.13 1.454.205 2.2zM49.938 39.635c4.274.037 7.54-1.92 9.648-5.5 3.527-6.003 3.49-12.137-.317-18.009-2.93-4.512-7.931-5.984-12.727-4.456-3.415 1.1-5.524 3.636-6.737 6.86-1.922 5.146-1.81 10.273.728 15.214 1.94 3.821 5.076 5.853 9.405 5.89zM22.207 77.947v1.659c-.765.075-1.512.186-2.277.242-2.538.168-5.113.336-7.595-.317-4.441-1.156-7.333-4.008-8.584-8.426-.951-3.412-1.026-6.917-.69-10.422.205-2.18.56-4.325 1.586-6.264 1.735-3.262 4.404-5.387 8.099-6.114 2.22-.43 4.441-.448 6.68-.243.915.075 1.83.13 2.762.205v1.64c-.634 0-1.212.02-1.791 0-1.791-.055-3.602-.186-5.393-.167-4.255 0-8.174 3.43-9.237 7.159-.728 2.591-1.195 5.201-1.045 7.886.149 2.852.448 5.723 1.94 8.24 1.81 3.076 4.48 4.978 8.137 5.108 2.127.075 4.273-.112 6.419-.168.336-.018.653-.018.99-.018zM79.999 48.38c-2.612 4.175-5.15 8.22-7.688 12.247-.616.97-1.213 1.94-1.848 2.909-.336.522-.448 1.062-.448 1.677.019 4.661 0 9.322 0 14.095-.56.037-1.082.055-1.791.093v-1.138c0-4.38.019-8.762-.019-13.143 0-.503-.149-1.062-.41-1.473-2.613-4.213-5.281-8.407-7.913-12.602a124.391 124.391 0 01-1.642-2.685h2.053c2.892 4.624 5.804 9.266 8.808 14.057 3.004-4.791 5.897-9.396 8.808-14.038h2.09zm-35.1 1.752H36.78v-1.753h17.915c.019.298.056.522.056.764.018.28 0 .541 0 .951h-8.118v29.25H44.9V50.133z" fill="#555"/><path d="M29.557 5.016c-1.4-.019-2.575-1.212-2.557-2.554.019-1.38 1.213-2.498 2.594-2.461 1.456.037 2.631 1.23 2.575 2.61-.037 1.268-1.306 2.423-2.612 2.405z" fill="#E12"/></svg>