<svg width="25" height="25" fill="none" xmlns="http://www.w3.org/2000/svg"><g clip-path="url(#clip0)" stroke="#E31E24"><path d="M2.873 17.897l-2.276 5.31a1 1 0 00.92 1.393h21.966a1 1 0 00.92-1.394l-2.276-5.309a1 1 0 00-.404-.463l-4.053-2.432c-.394-.236-.895-.167-1.248.126-3.028 2.515-6.165 1.286-7.836-.014-.363-.282-.862-.348-1.256-.112l-4.053 2.432a1 1 0 00-.404.463zM7.095 6.515c.753 4.8 3.762 6 5.173 6 1.567.154 4.89-.83 5.643-6 .752-5.17-3.449-6.154-5.643-6-2.038 0-5.925 1.2-5.173 6z"/></g><defs><clipPath id="clip0"><path d="M0 0h25v25H0V0z" fill="#fff"/></clipPath></defs></svg>