<svg width="20" height="20" fill="none" xmlns="http://www.w3.org/2000/svg"><path d="M19.658 7.368H9.461v4.737h5.151c-.736 1.948-2.365 3.158-4.52 3.158-2.838 0-5.361-2.474-5.361-5.263 0-2.79 2.523-5.263 5.36-5.263 1.368 0 2.524.42 3.365 1.263l.368.368 3.521-3.526-.42-.368C15.295.842 12.93 0 10.092 0 4.415 0 0 4.368 0 10s4.415 10 10.092 10c5.204 0 8.935-3.053 9.619-8 .105-.632.157-1.316.157-2 0-.79-.052-1.579-.157-2.21l-.053-.422zm-.946 4.474c-.683 4.474-3.89 7.105-8.62 7.105-5.046 0-9.04-3.947-9.04-8.947 0-5 3.994-8.947 9.04-8.947 2.365 0 4.257.631 5.73 1.789l-2.05 2.053c-.947-.79-2.208-1.21-3.68-1.21-3.47 0-6.413 2.894-6.413 6.315 0 3.421 2.944 6.316 6.36 6.316 2.839 0 5.099-1.842 5.73-4.632l.157-.631h-5.414V8.42h8.253c.052.474.105 1.053.105 1.579 0 .632-.053 1.263-.158 1.842z" fill="#E31E24"/></svg>