<svg width="25" height="25" fill="none" xmlns="http://www.w3.org/2000/svg"><path d="M12.58 5.479a3.2 3.2 0 00-3.195 3.196 3.2 3.2 0 003.196 3.196 3.2 3.2 0 003.196-3.196 3.2 3.2 0 00-3.196-3.196zm0 5.478a2.285 2.285 0 01-2.282-2.282 2.285 2.285 0 012.283-2.283 2.285 2.285 0 012.283 2.283 2.285 2.285 0 01-2.283 2.282z" fill="#E31E24"/><path d="M18.69 2.565A8.698 8.698 0 0012.5 0c-2.34 0-4.537.91-6.191 2.565-3.06 3.06-3.44 8.817-.824 12.305L12.5 25l7.004-10.116c2.627-3.502 2.247-9.26-.813-12.32zm.073 11.785L12.5 23.396l-6.274-9.06c-2.373-3.165-2.033-8.364.729-11.126A7.79 7.79 0 0112.5.913a7.79 7.79 0 015.545 2.297c2.762 2.762 3.103 7.961.718 11.14z" fill="#E31E24"/></svg>