<svg width="20" height="20" fill="none" xmlns="http://www.w3.org/2000/svg"><circle cx="10" cy="10" r="9.7" stroke="#E31E24" stroke-width=".6"/><path d="M9.003 12.423v-.253c0-.56.084-1.019.253-1.374.173-.356.49-.736.95-1.142l.622-.54c.328-.278.563-.553.704-.827.142-.273.212-.588.212-.943 0-.579-.191-1.04-.574-1.381-.378-.342-.877-.513-1.497-.513-.36 0-.697.041-1.012.123a5.177 5.177 0 00-1.018.383L7.39 5.41c.501-.219.92-.364 1.257-.437a5.03 5.03 0 011.053-.11c.834 0 1.49.226 1.969.677.479.447.718 1.062.718 1.846 0 .31-.041.58-.123.813a2.42 2.42 0 01-.349.65 3.865 3.865 0 01-.533.574c-.21.182-.442.38-.697.595a4.704 4.704 0 00-.677.676c-.155.2-.27.413-.342.636-.068.223-.103.556-.103.998v.096h-.56zm-.226 2.044c0-.447.183-.67.547-.67.374 0 .56.223.56.67 0 .446-.186.67-.56.67-.364 0-.547-.224-.547-.67z" fill="#E31E24"/></svg>