<svg width="25" height="25" fill="none" xmlns="http://www.w3.org/2000/svg"><path d="M.559 24.166h0l6.98-7.258A9.93 9.93 0 014.66 9.912c0-5.493 4.469-9.962 9.962-9.962 5.493 0 9.962 4.469 9.962 9.962 0 5.493-4.469 9.962-9.962 9.962a9.916 9.916 0 01-6.313-2.263L1.312 24.89a.518.518 0 01-.739.014h0a.522.522 0 01-.014-.738zm14.064-5.336c4.918 0 8.918-4 8.918-8.918 0-4.918-4-8.918-8.918-8.918-4.917 0-8.918 4-8.918 8.918 0 4.918 4.001 8.918 8.918 8.918z" fill="#E31E24" stroke="#E31E24" stroke-width=".1"/></svg>