<svg width="18" height="18" fill="none" xmlns="http://www.w3.org/2000/svg"><path d="M12.182 12.793c-.16.16-.297.336-.416.521l-5.273-3.2a3.03 3.03 0 000-2.253l5.274-3.176a3.047 3.047 0 005.624-1.634A3.055 3.055 0 0014.34 0a3.055 3.055 0 00-3.051 3.051c0 .383.074.749.203 1.087l-5.28 3.18a3.05 3.05 0 00-5.603 1.67 3.049 3.049 0 005.602 1.67l5.28 3.203A3.047 3.047 0 0014.339 18c.782 0 1.563-.297 2.158-.892a3.031 3.031 0 00.893-2.158 3.03 3.03 0 00-.893-2.157 3.054 3.054 0 00-4.315 0zM14.34.61a2.444 2.444 0 012.44 2.441 2.444 2.444 0 01-2.44 2.441 2.444 2.444 0 01-2.441-2.44A2.444 2.444 0 0114.339.61zM3.66 11.428a2.444 2.444 0 01-2.44-2.44 2.444 2.444 0 012.44-2.442 2.444 2.444 0 012.442 2.441 2.444 2.444 0 01-2.441 2.441zm12.405 5.248c-.951.952-2.5.952-3.451 0a2.425 2.425 0 01-.715-1.726c0-.651.254-1.265.715-1.726a2.433 2.433 0 011.726-.713c.625 0 1.25.237 1.726.713.46.461.715 1.075.715 1.726 0 .652-.254 1.265-.716 1.726z" fill="#E31E24"/></svg>