<svg width="20" height="14" fill="none" xmlns="http://www.w3.org/2000/svg"><path d="M10.12 13.25c2.894 0 1.863-1.832 2.086-2.358-.003-.394-.007-.772.007-1.002.183.052.615.27 1.509 1.14 1.379 1.39 1.731 2.22 2.845 2.22h2.051c.65 0 .989-.27 1.158-.495.163-.218.323-.602.148-1.198-.457-1.437-3.126-3.918-3.291-4.18.024-.048.065-.112.085-.145h-.001c.526-.696 2.536-3.708 2.832-4.913l.002-.006c.16-.55.013-.907-.138-1.109C19.184.903 18.82.75 18.33.75h-2.05c-.688 0-1.208.346-1.472.977-.44 1.12-1.679 3.425-2.607 4.241a53.453 53.453 0 01.006-2.694c.03-1.279.126-2.524-1.201-2.524H7.782c-.831 0-1.627.908-.765 1.987.753.945.27 1.471.433 4.093-.633-.68-1.76-2.513-2.557-4.857C4.67 1.338 4.332.75 3.38.75H1.33C.496.75 0 1.204 0 1.963 0 3.668 3.774 13.25 10.12 13.25zM3.38 2c.18 0 .198 0 .333.382.815 2.402 2.645 5.957 3.982 5.957 1.004 0 1.004-1.029 1.004-1.417V3.839C8.642 2.817 8.271 2.308 8.027 2l2.923.003c.002.014-.017 3.413.008 4.236 0 1.17.928 1.84 2.378.373 1.529-1.726 2.586-4.306 2.629-4.411.062-.15.117-.201.313-.201h2.059l-.001.007c-.188.875-2.039 3.664-2.658 4.53l-.028.041c-.273.445-.494.937.037 1.629h.001c.049.058.174.195.358.385.57.588 2.525 2.6 2.698 3.4-.115.018-.24.005-2.178.009-.412 0-.735-.617-1.965-1.858-1.107-1.077-1.825-1.517-2.48-1.517-1.27 0-1.177 1.03-1.165 2.277.004 1.352-.005.925.005 1.01-.075.029-.287.087-.841.087-5.288 0-8.731-8.393-8.864-9.997.046-.004.677-.001 2.122-.002z" fill="#E31E24"/></svg>